# xmcd
# 
# Track frame offsets:
#     150
#     17505
#     31587
#     47887
#     63885
#     76885
#     90585
#     104982
#     115692
#     130779
#     144975
#     161877
#     175922
#     188300
#     202732
#     216707
# 
# Disc length: 3094
# 
# Revision: 2
# Processed by: cddbd v1.5.2PL0 Copyright (c) Steve Scherf et al.
# Submitted via: BonkEnc v1.0
# 
DISCID=d00c1410
DTITLE=SANDRO MATOS - VOL. III
DYEAR=2003
DGENRE=Forró
TTITLE0=BABY
TTITLE1=PRA NUNCA MAIS CHORAR
TTITLE2=GAROTA
TTITLE3=EU QUERO
TTITLE4=NOVAMENTE
TTITLE5=GOSTOSA SEDUÇÃO
TTITLE6=TERMINEI COM ELA
TTITLE7=EU TE ESPERO
TTITLE8=PENSANDO EM VOCÊ
TTITLE9=INDECISÃO
TTITLE10=NÃO CHORE NÃO
TTITLE11=CÂNDIDA
TTITLE12=DOCE, DOCE AMOR
TTITLE13=NÃO ME ABANDONE
TTITLE14=ME DÁ UM BEIJO
TTITLE15=VEM ME AMAR
EXTD=YEAR: 2003
EXTT0=
EXTT1=
EXTT2=
EXTT3=
EXTT4=
EXTT5=
EXTT6=
EXTT7=
EXTT8=
EXTT9=
EXTT10=
EXTT11=
EXTT12=
EXTT13=
EXTT14=
EXTT15=
PLAYORDER=
